<?xml version="1.0" standalone="no"?>
<!DOCTYPE svg PUBLIC "-//W3C//DTD SVG 20010904//EN"
 "http://www.w3.org/TR/2001/REC-SVG-20010904/DTD/svg10.dtd">
<svg version="1.0" xmlns="http://www.w3.org/2000/svg"
 width="459.000000pt" height="459.000000pt" viewBox="0 0 459.000000 459.000000"
 preserveAspectRatio="xMidYMid meet">
<metadata>
Created by potrace 1.14, written by Peter Selinger 2001-2017
</metadata>
<g transform="translate(0.000000,459.000000) scale(0.100000,-0.100000)"
fill="#000000" stroke="none">
<path d="M2090 4579 c-803 -78 -1499 -555 -1852 -1269 -169 -343 -247 -702
-235 -1085 12 -358 77 -622 232 -940 251 -516 683 -916 1219 -1130 287 -114
564 -161 905 -152 368 9 666 83 978 244 673 346 1121 977 1235 1738 20 137 17
512 -6 650 -72 440 -249 824 -529 1151 -366 427 -859 697 -1422 779 -128 19
-402 26 -525 14z"/>
</g>
</svg>
